# xmcd CD database file
#
# Track frame offsets:
#	150
#	12170
#	26680
#	42072
#	54282
#	66332
#	78760
#	93900
#	105722
#	119152
#	131022
#	149837
#	164665
#	180675
#	193605
#	215252
#	235812
#	253420
#	268780
#	281697
#	293730
#	307927
#
# Disc length: 4321 seconds
#
# Revision: 0
# Processed by: cddbd v1.5.2PL0 Copyright (c) Steve Scherf et al.
# Submitted via: CDex 1.51
#
DISCID=4a10df16
DTITLE=Herb Miller Orchestra - In the Mood - The music of Glen Miller
DYEAR=1995
DGENRE=Jazz
TTITLE0=01 Stormy Weather
TTITLE1=02 American Patrol
TTITLE2=03 A Nightingale Sang In Berkeley Square
TTITLE3=04 Running Wild
TTITLE4=05 Carribean Clipper
TTITLE5=06 Rhapsody in Blue
TTITLE6=07 Song of the Volga Boatman
TTITLE7=08 Don't Sit Under The Appletree
TTITLE8=09 Johnson Rag
TTITLE9=10 It Must Be Jelly Cos Jam Don't Shake That Way
TTITLE10=11 I Got A Gal In Kalamazoo
TTITLE11=12 Bugle Call Rag
TTITLE12=13 Moonlight Serenade
TTITLE13=14 Little Brown Jug
TTITLE14=15 Swing Low Sweet Chariot
TTITLE15=16 Chatanooga Choo Choo
TTITLE16=17 St Louis Blues
TTITLE17=18 Tuxedo Junction
TTITLE18=19 Serenade in Blue
TTITLE19=20 Flying Home
TTITLE20=21 String of Pearls
TTITLE21=22 In The Mood
EXTD=YEAR: 1995
EXTT0=
EXTT1=
EXTT2=
EXTT3=
EXTT4=
EXTT5=
EXTT6=
EXTT7=
EXTT8=
EXTT9=
EXTT10=
EXTT11=
EXTT12=
EXTT13=
EXTT14=
EXTT15=
EXTT16=
EXTT17=
EXTT18=
EXTT19=
EXTT20=
EXTT21=
PLAYORDER=
